<?xml version="1.0" encoding="UTF-8" standalone="no"?>
<svg
   xmlns:dc="http://purl.org/dc/elements/1.1/"
   xmlns:cc="http://creativecommons.org/ns#"
   xmlns:rdf="http://www.w3.org/1999/02/22-rdf-syntax-ns#"
   xmlns:svg="http://www.w3.org/2000/svg"
   xmlns="http://www.w3.org/2000/svg"
   xml:space="preserve"
   enable-background="new 0 0 192.756 192.756"
   viewBox="0 0 175.749 63.351529"
   height="63.351528"
   width="175.74899"
   y="0px"
   x="0px"
   id="Layer_1"
   version="1.0"><metadata
     id="metadata19"><rdf:RDF><cc:Work
         rdf:about=""><dc:format>image/svg+xml</dc:format><dc:type
           rdf:resource="http://purl.org/dc/dcmitype/StillImage" /><dc:title></dc:title></cc:Work></rdf:RDF></metadata><defs
     id="defs17" /><g
     transform="translate(-8.504,-64.701473)"
     id="g3"><path
       style="clip-rule:evenodd;fill-rule:evenodd"
       id="path7"
       d="m 117.66,97.682 c -0.354,-0.07 -0.775,-0.281 -1.128,-0.563 -3.241,-3.171 0.916,-6.836 5.638,-8.95 l 0,-5.99 c 1.127,0.634 1.69,0.704 1.762,0.846 l 3.664,-3.665 -1.198,-3.101 c 10.641,-3.735 14.939,-5.145 23.606,-6.624 l -1.55,-1.48 2.607,-1.479 c 5.778,1.972 11.275,2.466 10.288,7.398 0.282,-3.312 -3.805,-4.58 -10.146,-6.412 l -1.199,0.775 2.326,1.902 c -10.359,1.832 -16.771,3.876 -24.383,6.554 l 1.058,2.678 -3.806,3.805 c 0.635,0.141 7.259,2.466 14.164,-2.466 0.071,0 0.142,-0.071 0.142,-0.141 -0.212,-0.352 -0.635,-0.705 -1.198,-1.198 1.974,0.141 3.312,1.973 3.03,3.805 l -0.916,0 c 0.141,-0.564 0,-1.269 -0.282,-1.691 -5.284,3.946 -11.557,4.51 -16.842,2.678 l 0,4.651 c -2.537,0.916 -7.188,3.734 -7.117,6.483 0.14,1.339 0.845,1.833 1.48,2.185 l 0,0 z" /><path
       style="clip-rule:evenodd;fill:#f47937;fill-rule:evenodd"
       id="path9"
       d="m 139.363,96.484 c -5.777,2.959 -11.274,5.286 -19.731,5.637 -10.992,-0.211 -12.754,-7.611 -7.539,-15.362 4.933,-7.822 12.754,-14.799 25.228,-19.238 3.594,-1.269 8.95,-2.748 14.023,-2.818 7.398,-0.07 14.516,2.255 14.094,9.372 -0.282,5.427 -8.104,13.107 -12.191,18.674 -1.762,2.396 -2.043,3.946 0.916,3.805 10.923,-0.705 20.788,-4.51 29.949,-8.456 -6.202,4.229 -38.265,20.295 -38.405,9.303 0.07,-1.34 0.705,-2.819 1.69,-4.37 1.058,-1.55 2.468,-3.242 3.947,-4.862 2.185,-2.537 7.61,-8.527 9.372,-12.191 3.101,-6.835 -3.806,-7.188 -9.654,-9.301 l -2.607,1.479 1.55,1.48 c -8.667,1.479 -12.966,2.889 -23.606,6.624 l 1.198,3.101 -3.664,3.665 c -0.071,-0.142 -0.635,-0.212 -1.762,-0.846 l 0,5.99 c -4.722,2.113 -8.879,5.778 -5.638,8.95 0.353,0.282 0.774,0.493 1.128,0.563 l 0,0 c 5.847,3.311 21.702,-1.199 21.702,-1.199 l 0,0 z" /><path
       style="clip-rule:evenodd;fill:#f47937;fill-rule:evenodd"
       id="path11"
       d="m 42.329,112.832 0,-3.594 5.285,0 0,3.594 -5.285,0 0,0 z m 0.141,14.869 0,-12.896 4.933,0 0,12.896 -4.933,0 0,0 z m 58.277,-6.765 c 0,-1.197 -0.282,-2.113 -0.916,-2.818 -0.635,-0.705 -1.55,-1.057 -2.607,-1.057 0,0 0,0 -0.07,0 -1.127,0.07 -1.973,0.352 -2.607,1.057 -0.634,0.705 -0.916,1.691 -0.916,2.959 0,1.27 0.282,2.256 0.916,2.961 0.634,0.703 1.48,0.986 2.607,0.986 1.128,0 2.043,-0.354 2.678,-1.059 0.633,-0.703 0.915,-1.76 0.915,-3.029 l 0,0 z m -3.594,-6.202 c 0.635,-0.141 1.339,-0.211 2.043,-0.211 2.044,0 3.665,0.564 4.862,1.762 1.128,1.199 1.763,2.818 1.763,4.863 0,2.184 -0.564,3.875 -1.763,5.072 -1.127,1.199 -2.748,1.832 -4.791,1.832 -0.705,0 -1.41,-0.141 -2.114,-0.281 -0.353,-0.141 -0.705,-0.281 -1.058,-0.424 -0.916,-0.492 -1.761,-1.127 -2.466,-2.043 l 0,0.424 c 0,0.352 0,0.633 0,0.986 0,0.352 -0.07,0.705 -0.141,0.986 l -4.933,0 c 0.071,-0.494 0.071,-0.986 0.142,-1.48 0,-0.492 0.071,-0.986 0.071,-1.408 l 0,-15.574 4.862,0 0,7.398 c 0.775,-0.705 1.62,-1.268 2.537,-1.621 0.353,-0.14 0.633,-0.21 0.986,-0.281 l 0,0 z m 56.093,1.621 c 2.607,0 4.721,2.186 4.721,4.793 0,2.605 -2.113,4.721 -4.721,4.721 -2.608,0 -4.792,-2.115 -4.792,-4.721 0,-2.607 2.185,-4.793 4.792,-4.793 l 0,0 z m 0,11.698 c 3.806,0 6.906,-3.1 6.906,-6.904 0,-3.877 -3.101,-6.977 -6.906,-6.977 -3.805,0 -6.976,3.1 -6.976,6.977 10e-4,3.804 3.17,6.904 6.976,6.904 l 0,0 z m -25.368,-2.324 2.185,0 0,1.973 -2.185,0 0,-1.973 0,0 z m 16.63,0.351 c -0.704,0.564 -2.113,1.973 -4.862,1.973 -3.522,0 -6.905,-2.748 -6.905,-6.904 0,-4.158 3.383,-6.977 6.905,-6.977 2.607,0 4.158,1.408 4.862,1.973 -0.423,0.635 -0.775,1.762 -0.916,2.254 -1.339,-1.762 -2.96,-2.043 -3.946,-2.043 -2.607,0 -4.722,2.186 -4.722,4.793 0,2.535 2.114,4.721 4.722,4.721 1.479,0 2.89,-0.635 3.946,-2.045 0.282,1.128 0.704,1.831 0.916,2.255 l 0,0 z m 18.744,1.621 0,-12.896 1.974,0 0,1.832 c 0.423,-0.633 0.986,-1.127 1.621,-1.549 0.704,-0.354 1.479,-0.564 2.325,-0.564 0.916,0 1.691,0.211 2.325,0.564 0.635,0.422 1.058,0.986 1.339,1.691 0.986,-1.48 2.326,-2.256 3.947,-2.256 1.268,0 2.254,0.352 2.959,1.057 0.705,0.705 1.057,1.832 1.057,3.312 l 0,8.809 -2.184,0 0,-8.104 c 0,-0.916 -0.071,-1.48 -0.212,-1.902 -0.142,-0.354 -0.423,-0.705 -0.775,-0.916 -0.353,-0.213 -0.845,-0.354 -1.339,-0.354 -0.916,0 -1.621,0.281 -2.255,0.916 -0.563,0.564 -0.916,1.551 -0.916,2.889 l 0,7.471 -2.185,0 0,-8.387 c 0,-0.986 -0.141,-1.691 -0.494,-2.184 -0.352,-0.494 -0.985,-0.705 -1.761,-0.705 -0.634,0 -1.198,0.141 -1.691,0.494 -0.563,0.281 -0.916,0.775 -1.128,1.408 -0.281,0.635 -0.353,1.551 -0.353,2.678 l 0,6.695 -2.254,0 0,10e-4 z m 16.702,-15.715 0,-2.467 -0.917,0 0,-0.281 2.255,0 0,0.281 -0.916,0 0,2.467 -0.422,0 0,0 z m 1.691,0 0,-2.748 0.564,0 0.634,1.973 c 0.07,0.141 0.07,0.283 0.141,0.354 0,-0.07 0.071,-0.213 0.141,-0.424 l 0.635,-1.902 0.493,0 0,2.748 -0.353,0 0,-2.326 -0.775,2.326 -0.352,0 -0.775,-2.326 0,2.326 -0.353,0 0,-10e-4 z m -62.999,13.813 c -0.492,0.775 -1.268,1.268 -2.325,1.691 -0.211,0.07 -0.493,0.141 -0.704,0.211 -0.846,0.211 -1.832,0.352 -2.96,0.352 -1.62,0 -2.89,-0.352 -3.806,-1.057 -0.846,-0.635 -1.339,-1.621 -1.339,-2.889 0,-0.775 0.212,-1.48 0.564,-2.113 0.353,-0.564 0.846,-1.059 1.479,-1.48 0.493,-0.354 1.269,-0.564 2.185,-0.705 0.846,-0.141 2.114,-0.211 3.876,-0.211 0.141,0 0.353,0 0.563,0 l 2.396,0 c 0,-0.07 0,-0.07 0,-0.211 0,-0.072 0,-0.143 0,-0.143 0,-0.703 -0.211,-1.268 -0.634,-1.621 -0.423,-0.352 -0.986,-0.562 -1.762,-0.562 -0.211,0 -0.423,0.07 -0.563,0.07 -0.635,0 -1.128,0.141 -1.479,0.354 -0.424,0.211 -0.705,0.633 -0.775,1.197 l -5.004,0 c 0.141,-1.41 0.916,-2.467 2.185,-3.172 1.128,-0.635 2.819,-0.916 5.074,-0.986 0.211,0 0.423,0 0.634,0 2.396,0 4.229,0.422 5.356,1.197 1.127,0.775 1.69,2.045 1.69,3.736 l 0,6.553 c 0,0.352 0.07,0.705 0.07,0.986 0.071,0.211 0.141,0.494 0.212,0.705 l -4.58,0 c -0.142,-0.211 -0.212,-0.494 -0.282,-0.775 0,-0.211 -0.071,-0.564 -0.071,-0.846 l 0,-0.281 0,0 z m -3.03,-0.565 c 0.846,-0.07 1.55,-0.352 2.044,-0.775 0.563,-0.494 0.915,-1.268 0.915,-2.184 l 0,-0.281 -0.422,0 c -0.987,0 -1.833,0 -2.537,0.068 -0.775,0.072 -1.339,0.143 -1.762,0.354 -0.775,0.211 -1.198,0.705 -1.198,1.408 0,0.424 0.211,0.775 0.635,1.059 0.422,0.211 1.057,0.352 1.832,0.352 0.211,-0.001 0.352,-0.001 0.493,-0.001 l 0,0 z m -34.881,0.565 c -0.564,0.775 -1.339,1.268 -2.396,1.691 -0.212,0.07 -0.424,0.141 -0.706,0.211 -0.844,0.211 -1.831,0.352 -2.959,0.352 -1.621,0 -2.889,-0.352 -3.735,-1.057 -0.916,-0.635 -1.338,-1.621 -1.338,-2.889 0,-0.775 0.141,-1.48 0.493,-2.113 0.352,-0.564 0.845,-1.059 1.479,-1.48 0.564,-0.354 1.269,-0.564 2.185,-0.705 0.845,-0.141 2.114,-0.211 3.875,-0.211 0.212,0 0.353,0 0.564,0 l 2.396,0 c 0,-0.07 0,-0.07 0,-0.211 0,-0.072 0,-0.143 0,-0.143 0,-0.703 -0.211,-1.268 -0.633,-1.621 -0.424,-0.352 -0.988,-0.562 -1.763,-0.562 -0.211,0 -0.352,0.07 -0.564,0.07 -0.633,0 -1.127,0.141 -1.479,0.354 -0.422,0.211 -0.633,0.633 -0.775,1.197 l -5.003,0 c 0.212,-1.41 0.917,-2.467 2.185,-3.172 1.198,-0.635 2.889,-0.916 5.073,-0.986 0.212,0 0.423,0 0.635,0 2.396,0 4.229,0.422 5.355,1.197 1.128,0.775 1.762,2.045 1.762,3.736 l 0,6.553 c 0,0.352 0,0.705 0,0.986 0.07,0.211 0.141,0.494 0.211,0.705 l -4.581,0 c -0.141,-0.211 -0.211,-0.494 -0.211,-0.775 -0.07,-0.211 -0.07,-0.564 -0.07,-0.846 l 0,-0.281 0,0 z m -3.102,-0.565 c 0.917,-0.07 1.551,-0.352 2.044,-0.775 0.634,-0.494 0.916,-1.268 0.916,-2.184 l 0,-0.281 -0.422,0 c -0.987,0 -1.832,0 -2.538,0.068 -0.704,0.072 -1.268,0.143 -1.69,0.354 -0.846,0.211 -1.198,0.705 -1.198,1.408 0,0.424 0.211,0.775 0.563,1.059 0.424,0.211 1.057,0.352 1.903,0.352 0.141,-0.001 0.282,-0.001 0.422,-0.001 l 0,0 z m -14.868,-4.298 c 0,-1.197 -0.282,-2.113 -0.917,-2.818 -0.634,-0.705 -1.479,-1.057 -2.606,-1.057 -1.198,0.07 -2.044,0.352 -2.678,1.057 -0.635,0.705 -0.917,1.691 -0.917,2.959 0,1.27 0.282,2.256 0.917,2.961 0.634,0.703 1.55,0.986 2.607,0.986 l 0.07,0 c 1.127,0 1.973,-0.354 2.606,-1.059 0.636,-0.703 0.918,-1.76 0.918,-3.029 l 0,0 z m -3.523,-6.202 c 0.634,-0.141 1.269,-0.211 1.973,-0.211 2.043,0 3.665,0.564 4.862,1.762 1.197,1.199 1.762,2.818 1.762,4.863 0,2.184 -0.564,3.875 -1.691,5.072 -1.198,1.199 -2.749,1.832 -4.792,1.832 -0.775,0 -1.479,-0.141 -2.113,-0.281 -0.423,-0.141 -0.776,-0.281 -1.057,-0.424 -0.987,-0.492 -1.832,-1.127 -2.467,-2.043 l 0,0.424 c 0,0.352 0,0.633 -0.07,0.986 0,0.352 -0.07,0.705 -0.07,0.986 l -5.003,0 c 0.071,-0.494 0.141,-0.986 0.141,-1.48 0.071,-0.492 0.071,-0.986 0.071,-1.408 l 0,-15.574 4.933,0 0,7.398 c 0.705,-0.705 1.551,-1.268 2.467,-1.621 0.348,-0.14 0.701,-0.21 1.054,-0.281 l 0,0 z m -38.406,-5.496 3.594,0 9.02,18.463 -5.919,0 -1.621,-3.736 -5.073,0 -5.003,0 -1.762,3.736 -5.568,0 9.655,-18.463 2.677,0 0,0 z m 0,11.135 3.382,0 -3.171,-7.117 -0.211,0.352 -3.313,6.766 3.313,0 0,-10e-4 z m 13.46,7.328 0,-18.463 4.933,0 0,18.463 -4.933,0 0,0 z" /><path
       style="clip-rule:evenodd;fill:#f47937;fill-rule:evenodd"
       id="path13"
       d="m 21.541,82.319 -1.269,0 0,4.933 1.269,0 1.339,0 0,-4.933 -1.339,0 0,0 z m 70.468,10.782 2.396,0 c 0.775,0 1.339,-0.211 1.55,-0.634 0.282,-0.352 0.493,-1.269 0.705,-2.678 0.493,0.634 1.269,1.057 2.114,1.198 -0.493,1.833 -0.986,2.89 -1.41,3.171 -0.422,0.352 -1.197,0.493 -2.395,0.493 l -2.96,0 -6.695,0 -1.268,0 c -2.043,0 -3.03,-0.846 -3.03,-2.537 l 0,-12.261 c 0,-0.916 -0.07,-1.973 -0.141,-3.171 l 4.439,0 6.695,0 4.298,0 c -0.07,1.269 -0.07,2.96 -0.07,5.074 0,2.114 0,3.806 0.07,5.145 l -1.832,0 0,-1.41 -2.467,0 -6.695,0 -2.537,0 0,5.708 c 0,1.269 0.705,1.903 2.044,1.903 l 0.493,0 6.696,0 0,-0.001 z m 0,-9.231 2.467,0 0,-5.567 -2.467,0 -2.537,0 0,5.567 2.537,0 0,0 z m -6.695,0 2.466,0 0,-5.567 -2.466,0 -2.537,0 0,5.567 2.537,0 0,0 z m -16.207,9.231 2.396,0 c 0.775,0 1.339,-0.211 1.55,-0.634 0.282,-0.352 0.493,-1.269 0.705,-2.678 0.563,0.634 1.269,1.057 2.114,1.198 -0.493,1.833 -0.986,2.89 -1.409,3.171 -0.423,0.352 -1.199,0.493 -2.396,0.493 l -2.959,0 -6.695,0 -1.268,0 c -2.043,0 -3.03,-0.846 -3.03,-2.537 l 0,-12.261 c 0,-0.916 -0.071,-1.973 -0.071,-3.171 l 4.369,0 6.695,0 4.299,0 c -0.071,1.269 -0.071,2.96 -0.071,5.074 0,2.114 0,3.806 0.071,5.145 l -1.833,0 0,-1.41 -2.466,0 -6.695,0 -2.536,0 0,5.708 c 0,1.269 0.704,1.903 2.043,1.903 l 0.493,0 6.694,0 0,-0.001 z m 0,-9.231 2.466,0 0,-5.567 -2.466,0 -2.537,0 0,5.567 2.537,0 0,0 z m -6.695,0 2.467,0 0,-5.567 -2.467,0 -2.536,0 0,5.567 2.536,0 0,0 z m -16.207,9.301 3.665,0 c 0.986,-0.07 2.043,-0.07 3.241,-0.07 l 0,1.691 C 51.914,94.651 50.856,94.581 49.87,94.581 l -3.665,0 -6.694,0 -3.031,0 c -1.057,0 -2.326,0.07 -3.664,0.211 l 0,-1.691 c 1.409,0 2.606,0 3.664,0.07 l 3.031,0 2.396,0 0,-2.959 -2.396,0 -1.621,0 c -0.846,0 -1.903,0 -3.101,0.07 l 0,-1.62 c 1.198,0.07 2.254,0.141 3.101,0.211 l 1.621,0 2.396,0 0,-2.537 -2.396,0 -4.299,0 c 0.071,-1.198 0.142,-2.678 0.142,-4.369 0,-1.621 0,-3.523 -0.142,-5.497 l 4.299,0 6.694,0 4.369,0 c -0.071,1.198 -0.071,2.889 -0.071,4.933 0,2.044 0,3.735 0.071,4.933 l -4.369,0 -2.607,0 0,2.537 2.607,0 1.69,0 c 0.846,-0.07 1.903,-0.141 3.171,-0.211 l 0,1.62 c -1.269,-0.07 -2.325,-0.07 -3.171,-0.07 l -1.69,0 -2.607,0 0,2.959 2.607,0 0,0 z m 0,-8.173 2.607,0 0,-2.819 -2.607,0 -2.607,0 0,2.819 2.607,0 0,0 z m 0,-4.088 2.607,0 0,-3.1 -2.607,0 -2.607,0 0,3.101 2.607,0 0,-0.001 z m -6.694,4.088 2.396,0 0,-2.819 -2.396,0 -2.396,0 0,2.819 2.396,0 0,0 z m 0,-4.088 2.396,0 0,-3.1 -2.396,0 -2.396,0 0,3.101 2.396,0 0,-0.001 z m -17.97,7.893 -1.269,0 0,2.184 -1.691,0 c 0.07,-0.916 0.07,-2.607 0.07,-5.074 0,-2.466 0,-4.158 -0.07,-5.074 l 2.96,0 3.03,0 c -0.07,1.128 -0.07,2.678 -0.07,4.651 0,1.974 0,3.524 0.07,4.651 l -1.69,0 0,-1.338 -1.34,0 0,0 z m 0,-10.923 4.791,0 0,13.953 c 0,0.705 -0.14,1.127 -0.493,1.268 -0.281,0.07 -0.987,0.141 -2.044,0.141 0.423,0.634 0.635,1.339 0.775,2.043 1.269,-0.141 2.114,-0.352 2.678,-0.634 0.564,-0.282 0.775,-0.987 0.775,-2.185 l 0,-14.586 c 0.564,0 1.41,0 2.466,0.071 l 0,-1.691 c -1.127,0.07 -1.902,0.07 -2.254,0.07 l -6.694,0 -1.057,0 c -0.705,0 -1.55,0 -2.678,-0.07 l 0,1.691 c 1.339,-0.071 2.256,-0.071 2.678,-0.071 l 1.057,0 0,0 z m -7.893,5.426 c 1.199,1.762 1.903,3.03 2.114,3.875 0.211,0.917 0.142,1.48 -0.211,1.692 -0.352,0.211 -1.057,0.423 -2.044,0.563 0.353,0.635 0.635,1.269 0.775,1.903 0.917,-0.211 1.69,-0.563 2.396,-1.058 0.705,-0.563 1.057,-1.338 0.986,-2.466 -0.142,-1.057 -0.846,-2.607 -2.325,-4.651 0.704,-2.325 1.339,-4.58 1.973,-6.835 l -6.341,0 c 0.07,1.198 0.07,4.228 0.07,8.95 0,4.792 0,8.104 -0.07,10.006 l 1.832,0 0,-17.405 2.396,0 c -0.564,2.114 -1.057,3.946 -1.551,5.426 l 0,0 0,0 z" /></g></svg>